<?xml version="1.0" encoding="utf-8"?>
<!-- Generator: Adobe Illustrator 19.0.0, SVG Export Plug-In . SVG Version: 6.00 Build 0)  -->
<svg version="1.1" id="Layer_1" xmlns="http://www.w3.org/2000/svg" xmlns:xlink="http://www.w3.org/1999/xlink" x="0px" y="0px"
	 viewBox="-11 13 176 176" style="enable-background:new -11 13 176 176;" xml:space="preserve">
<style type="text/css">
	.st0{fill:#FFFFFF;stroke:#000000;stroke-width:5;stroke-linejoin:round;stroke-miterlimit:10;}
	.st1{fill:none;stroke:#000000;stroke-width:5;stroke-linejoin:round;stroke-miterlimit:10;}
	.st2{fill:none;stroke:#000000;stroke-width:5;stroke-linecap:round;stroke-linejoin:round;stroke-miterlimit:10;}
	.st3{fill:#FFFFFF;}
	.st4{fill:none;stroke:#000000;stroke-width:8;stroke-linejoin:round;stroke-miterlimit:10;}
	.st5{fill:none;stroke:#000000;stroke-width:13;stroke-linecap:round;stroke-linejoin:round;stroke-miterlimit:10;}
	.st6{fill:none;stroke:#000000;stroke-width:6;stroke-linecap:round;stroke-linejoin:round;stroke-miterlimit:10;}
	.st7{fill:#A70A0A;}
</style>
<g id="papers">
	<g id="XMLID_3_">
		<path id="paper_1_" class="st0" d="M34.6,156.8V51.7c0-2.2,1.8-4,4-4h72c2.2,0,4,1.8,4,4v105.2c0,2.2-1.8,4-4,4h-72
			C36.4,160.9,34.6,159.1,34.6,156.8z"/>
		<path id="paper_-_rect_2_" class="st0" d="M25.7,57.6v90.5c0,2.2,1.8,4,4,4h72c2.2,0,4-1.8,4-4V42.8c0-2.2-1.8-4-4-4H44.3
			L25.7,57.6z"/>
		<path id="corner_2_" class="st1" d="M26.8,57.6h12.6c2.6,0,4.7-2.1,4.7-4.7v-13"/>
	</g>
</g>
<g id="textlines">
	<g id="XMLID_70_">
		<line id="XMLID_74_" class="st2" x1="41" y1="78.5" x2="95.7" y2="78.5"/>
		<line id="XMLID_73_" class="st2" x1="41" y1="96.6" x2="95.7" y2="96.6"/>
		<line id="XMLID_72_" class="st2" x1="41" y1="114.8" x2="95.7" y2="114.8"/>
		<line id="XMLID_71_" class="st2" x1="41" y1="132.9" x2="95.7" y2="132.9"/>
	</g>
</g>
<g id="magnifier">
	<g id="XMLID_39_">
		<circle id="bg_1_" class="st3" cx="84.8" cy="105.3" r="34.5"/>
		<circle id="XMLID_40_" class="st4" cx="84.8" cy="105.1" r="34.5"/>
		<line id="handle_2_1_" class="st5" x1="125.4" y1="145.6" x2="157" y2="178"/>
		<line id="handle_big_1_" class="st6" x1="108.6" y1="129" x2="126.3" y2="146.4"/>
		<path id="XMLID_45_" class="st7" d="M68.6,120.6l19.6-28.2v-0.2H70.3v-7.7h29.8v5.4L81,117.6v0.2h19.5v7.7H68.6V120.6z"/>
	</g>
</g>
</svg>
